<svg width="54" height="54" viewBox="0 0 54 54" fill="none" xmlns="http://www.w3.org/2000/svg">
<g filter="url(#filter0_d)">
<circle cx="27" cy="26" r="20" fill="#FAB412"/>
</g>
<path fill-rule="evenodd" clip-rule="evenodd" d="M18.25 32.875H35.75V34.125H18.25V32.875ZM32.8813 21.625C33.116 21.3905 33.2479 21.0724 33.2479 20.7406C33.2479 20.4089 33.116 20.0907 32.8813 19.8562L30.6438 17.6187C30.4093 17.384 30.0911 17.2521 29.7594 17.2521C29.4276 17.2521 29.1095 17.384 28.875 17.6187L19.5 26.9937V31H23.5062L32.8813 21.625ZM29.7578 18.5002L32.0016 20.7439L30.1266 22.6189L27.8828 20.3752L29.7578 18.5002ZM20.75 29.75V27.5062L27 21.2562L29.2437 23.5L22.9938 29.75H20.75Z" fill="white"/>
<defs>
<filter id="filter0_d" x="0" y="0" width="54" height="54" filterUnits="userSpaceOnUse" color-interpolation-filters="sRGB">
<feFlood flood-opacity="0" result="BackgroundImageFix"/>
<feColorMatrix in="SourceAlpha" type="matrix" values="0 0 0 0 0 0 0 0 0 0 0 0 0 0 0 0 0 0 127 0"/>
<feMorphology radius="2" operator="erode" in="SourceAlpha" result="effect1_dropShadow"/>
<feOffset dy="1"/>
<feGaussianBlur stdDeviation="4.5"/>
<feColorMatrix type="matrix" values="0 0 0 0 0.980392 0 0 0 0 0.705882 0 0 0 0 0.0705882 0 0 0 1 0"/>
<feBlend mode="normal" in2="BackgroundImageFix" result="effect1_dropShadow"/>
<feBlend mode="normal" in="SourceGraphic" in2="effect1_dropShadow" result="shape"/>
</filter>
</defs>
</svg>
