<svg width="25" height="24" viewBox="0 0 25 24" fill="none" xmlns="http://www.w3.org/2000/svg">
<path d="M12.5477 0.00613403C14.9149 0.00613404 17.229 0.709636 19.1972 2.02768C21.1655 3.34571 22.6995 5.21909 23.6054 7.4109C24.5112 9.6027 24.7482 12.0145 24.2863 14.3413C23.8244 16.668 22.6844 18.8053 21.0105 20.4827C19.3365 22.1602 17.2038 23.3025 14.8821 23.7652C12.5603 24.2279 10.1538 23.9903 7.96684 23.0823C5.77987 22.1743 3.91069 20.6367 2.59568 18.6641C1.28066 16.6914 0.578874 14.3723 0.579063 11.9999C0.582613 8.81988 1.84476 5.77114 4.08858 3.52261C6.33239 1.27409 9.3746 0.00943715 12.5477 0.00613403ZM5.84067 11.9999C5.84067 13.3289 6.23392 14.6281 6.97068 15.7332C7.70745 16.8382 8.75465 17.6995 9.97985 18.2081C11.2051 18.7167 12.5532 18.8498 13.8539 18.5905C15.1546 18.3312 16.3493 17.6912 17.287 16.7515C18.2248 15.8117 18.8634 14.6143 19.1221 13.3108C19.3808 12.0073 19.248 10.6562 18.7405 9.42836C18.233 8.20049 17.3736 7.15102 16.271 6.41264C15.1683 5.67427 13.8719 5.28016 12.5458 5.28016C10.7683 5.2827 9.06426 5.99149 7.80735 7.25113C6.55045 8.51078 5.8432 10.2185 5.84067 11.9999Z" fill="#FAB412"/>
</svg>
